<?xml version="1.0" encoding="UTF-8"?>
<!DOCTYPE svg PUBLIC "-//W3C//DTD SVG 1.1//EN" "http://www.w3.org/Graphics/SVG/1.1/DTD/svg11.dtd">
<svg xmlns="http://www.w3.org/2000/svg" version="1.1" width="306px" height="306px" style="shape-rendering:geometricPrecision; text-rendering:geometricPrecision; image-rendering:optimizeQuality; fill-rule:evenodd; clip-rule:evenodd" xmlns:xlink="http://www.w3.org/1999/xlink">
<g><path style="opacity:0.995" fill="#2d4356" d="M 222.5,49.5 C 199.275,61.6097 176.275,73.943 153.5,86.5C 153.167,86.5 152.833,86.5 152.5,86.5C 152.167,86.5 151.833,86.5 151.5,86.5C 128.694,73.9284 105.694,61.595 82.5,49.5C 105.492,36.6689 128.825,24.3355 152.5,12.5C 176.175,24.3355 199.508,36.6689 222.5,49.5 Z"/></g>
<g><path style="opacity:0.994" fill="#d17335" d="M 82.5,49.5 C 105.694,61.595 128.694,73.9284 151.5,86.5C 128.756,99.2274 105.756,111.561 82.5,123.5C 59.1836,111.195 35.8502,98.8621 12.5,86.5C 35.5092,73.6608 58.8425,61.3275 82.5,49.5 Z"/></g>
<g><path style="opacity:0.993" fill="#298779" d="M 222.5,49.5 C 246.157,61.3275 269.491,73.6608 292.5,86.5C 269.167,98.8333 245.833,111.167 222.5,123.5C 199.224,111.527 176.224,99.194 153.5,86.5C 176.275,73.943 199.275,61.6097 222.5,49.5 Z"/></g>
<g><path style="opacity:1" fill="#f9cb50" d="M 12.5,86.5 C 35.8502,98.8621 59.1836,111.195 82.5,123.5C 82.5,145.5 82.5,167.5 82.5,189.5C 59.1667,177.167 35.8333,164.833 12.5,152.5C 12.5,130.5 12.5,108.5 12.5,86.5 Z"/></g>
<g><path style="opacity:1" fill="#f1b746" d="M 151.5,86.5 C 151.833,86.5 152.167,86.5 152.5,86.5C 152.5,108.5 152.5,130.5 152.5,152.5C 129.306,164.595 106.306,176.928 83.5,189.5C 83.1667,189.5 82.8333,189.5 82.5,189.5C 82.5,167.5 82.5,145.5 82.5,123.5C 105.756,111.561 128.756,99.2274 151.5,86.5 Z"/></g>
<g><path style="opacity:1" fill="#3ab98f" d="M 152.5,86.5 C 152.833,86.5 153.167,86.5 153.5,86.5C 176.224,99.194 199.224,111.527 222.5,123.5C 222.5,145.5 222.5,167.5 222.5,189.5C 222.167,189.5 221.833,189.5 221.5,189.5C 198.694,176.928 175.694,164.595 152.5,152.5C 152.5,130.5 152.5,108.5 152.5,86.5 Z"/></g>
<g><path style="opacity:1" fill="#349788" d="M 292.5,86.5 C 292.5,108.5 292.5,130.5 292.5,152.5C 269.14,164.846 245.806,177.179 222.5,189.5C 222.5,167.5 222.5,145.5 222.5,123.5C 245.833,111.167 269.167,98.8333 292.5,86.5 Z"/></g>
<g><path style="opacity:0.997" fill="#349788" d="M 12.5,152.5 C 35.8333,164.833 59.1667,177.167 82.5,189.5C 82.5,211.5 82.5,233.5 82.5,255.5C 59.3961,243.781 36.3961,231.781 13.5,219.5C 12.5003,197.177 12.167,174.843 12.5,152.5 Z"/></g>
<g><path style="opacity:0.999" fill="#2d4357" d="M 152.5,152.5 C 175.694,164.595 198.694,176.928 221.5,189.5C 198.694,202.072 175.694,214.405 152.5,226.5C 129.306,214.405 106.306,202.072 83.5,189.5C 106.306,176.928 129.306,164.595 152.5,152.5 Z"/></g>
<g><path style="opacity:0.995" fill="#f9cb50" d="M 292.5,152.5 C 292.833,174.843 292.5,197.177 291.5,219.5C 268.604,231.781 245.604,243.781 222.5,255.5C 222.5,233.5 222.5,211.5 222.5,189.5C 245.806,177.179 269.14,164.846 292.5,152.5 Z"/></g>
<g><path style="opacity:0.997" fill="#364b5c" d="M 221.5,189.5 C 221.833,189.5 222.167,189.5 222.5,189.5C 222.5,211.5 222.5,233.5 222.5,255.5C 199.491,268.339 176.157,280.673 152.5,292.5C 152.5,270.5 152.5,248.5 152.5,226.5C 175.694,214.405 198.694,202.072 221.5,189.5 Z"/></g>
<g><path style="opacity:0.998" fill="#516477" d="M 82.5,189.5 C 82.8333,189.5 83.1667,189.5 83.5,189.5C 106.306,202.072 129.306,214.405 152.5,226.5C 152.5,248.5 152.5,270.5 152.5,292.5C 128.843,280.673 105.509,268.339 82.5,255.5C 82.5,233.5 82.5,211.5 82.5,189.5 Z"/></g>
</svg>
