<?xml version="1.0" encoding="utf-8"?>
<!-- Generator: Adobe Illustrator 27.9.0, SVG Export Plug-In . SVG Version: 6.00 Build 0)  -->
<svg version="1.1" id="Layer_1" xmlns="http://www.w3.org/2000/svg" xmlns:xlink="http://www.w3.org/1999/xlink" x="0px" y="0px"
	 viewBox="0 0 283.5 283.5" style="enable-background:new 0 0 283.5 283.5;" xml:space="preserve">
<style type="text/css">
	.st0{fill:#FFFFFF;}
	.st1{fill:#00205C;}
</style>
<path class="st0" d="M141,266.7l-1.2-0.6c-67.5-33.4-89-134.5-89.9-138.7c-11.3-55.2-3.8-89.7-3.5-91.1l0.4-1.7l94.2-17l94.2,17
	l0.4,1.7c0.3,1.4,7.8,35.9-3.5,91.1c-0.9,4.3-22.4,105.3-89.9,138.7L141,266.7z"/>
<g>
	<path class="st1" d="M141,269.5c-1,0-2-0.2-2.9-0.7c-68.7-34-90.4-136.2-91.3-140.5C35.4,72.6,43,37.6,43.3,36.1
		c0.6-2.5,2.6-4.5,5.2-4.9l91.4-16.5c0.8-0.1,1.5-0.1,2.3,0l91.4,16.5c2.6,0.5,4.6,2.4,5.2,4.9c0.3,1.5,7.9,36.5-3.5,92.2
		c-0.9,4.3-22.6,106.5-91.3,140.5C143,269.3,142,269.5,141,269.5z"/>
</g>
<g>
	<path class="st0" d="M86.2,123.2c1.4-1.7,4-5,5.3-6.9c0.6-0.8,1.1-1.6,1.1-2.3c0-0.9-0.7-1.9-2.2-1.9c-1,0-1.8,0.7-2.3,1.2
		c-0.2,0.2-0.4,0.2-0.6,0l-1-1c-0.1-0.1-0.2-0.4,0-0.5c0,0,1.6-2,4.1-2c3,0,4.6,1.9,4.6,4.1c0,1.3-0.6,2.2-1.4,3.3
		c-0.9,1.3-2.5,3.2-3.6,4.6h4.5c0.2,0,0.4,0.2,0.4,0.4v1.4c0,0.2-0.2,0.4-0.4,0.4h-8.1c-0.2,0-0.4-0.2-0.4-0.4V123.2z"/>
	<path class="st0" d="M97.6,117.1c0-4.5,1.9-7.2,5.2-7.2c3.3,0,5.2,2.7,5.2,7.2c0,4.5-1.9,7.2-5.2,7.2
		C99.5,124.3,97.6,121.6,97.6,117.1z M105.3,117.1c0-3.1-0.9-4.8-2.5-4.8c-1.6,0-2.5,1.7-2.5,4.8c0,3.1,0.9,4.8,2.5,4.8
		C104.4,121.9,105.3,120.1,105.3,117.1z"/>
</g>
<g>
	<path class="st0" d="M181.3,113.8l-1.8,0.4c-0.2,0-0.4-0.1-0.4-0.3l-0.1-1c0-0.2,0-0.3,0.1-0.4l3-2.5h1.4c0.2,0,0.4,0.2,0.4,0.4
		v13.3c0,0.2-0.2,0.4-0.4,0.4h-1.8c-0.2,0-0.4-0.2-0.4-0.4V113.8z"/>
	<path class="st0" d="M186.8,123.5l5.4-11.2h-5.5c-0.2,0-0.4-0.2-0.4-0.4v-1.4c0-0.2,0.2-0.4,0.4-0.4h8.6c0.2,0,0.4,0.2,0.4,0.4v0.1
		l-6.2,13c-0.1,0.3-0.4,0.6-0.7,0.6h-1.5c-0.2,0-0.5-0.1-0.5-0.4V123.5z"/>
</g>
<path class="st0" d="M233.1,38.7l-0.4-1.7L141,20.4L49.2,37l-0.4,1.7c-0.3,1.4-7.6,35,3.4,88.8c0.9,4.2,21.8,102.6,87.6,135.1
	l1.1,0.6l1.1-0.6c65.8-32.5,86.7-131,87.6-135.1C240.7,73.7,233.5,40.1,233.1,38.7z M224.7,126.5c-0.2,0.9-16.4,77.2-63.2,117.1
	c3-16.1,7-37.9,7-37.9c1.6-8.6,2.2-16.6,2.2-16.6c0.3-3.9-1.5-8.4-1.5-8.4c-0.8-1.9-1-3.9-1-3.9c-0.3-3.4,1.4-8.7,1.4-8.7
	c2-7.5,1.8-15.1,1.8-15.1c0-6.9-6.1-10.2-6.1-10.2c-3-1.9-11.4-3.7-11.4-3.7c-4.9-1.1-4.7-4.9-4.7-4.9c0-3.8,1.6-6.9,1.6-6.9
	c2.1-4,2.2-10.5,2.2-10.5c0-7.8-3.8-11.6-3.8-11.6c-2.9-3.3-8.3-3.3-8.3-3.3s-5.4,0-8.3,3.3c0,0-3.8,3.8-3.8,11.6
	c0,0,0.1,6.5,2.2,10.5c0,0,1.6,3.1,1.6,6.9c0,0,0.2,3.8-4.7,4.9c0,0-8.3,1.8-11.4,3.7c0,0-6.1,3.3-6.1,10.2c0,0-0.3,7.6,1.8,15.1
	c0,0,1.7,5.3,1.4,8.7c0,0-0.2,1.9-1,3.9c0,0-1.8,4.5-1.5,8.4c0,0,0.7,8,2.2,16.6c0,0,4,21.8,7,37.9c-46.8-40-63-116.3-63.2-117.1
	c-9.4-46-5-77.6-3.7-85L141,25.7l87.4,15.8C229.7,48.9,234.1,80.4,224.7,126.5z"/>
<g>
	<path class="st0" d="M63.9,61.4c0-0.4,0.3-0.7,0.7-0.7h11.1c4.7,0,8.5,3.7,8.5,8.3c0,3.6-2.4,6.5-5.7,7.8l5.3,9.9
		c0.3,0.5,0,1.1-0.7,1.1H79c-0.3,0-0.5-0.2-0.6-0.3l-5.2-10.3h-4.3v9.9c0,0.4-0.3,0.7-0.7,0.7h-3.6c-0.4,0-0.7-0.3-0.7-0.7V61.4z
		 M75.3,73c2.1,0,3.8-1.8,3.8-4c0-2.1-1.8-3.8-3.8-3.8H69V73H75.3z"/>
	<path class="st0" d="M86.2,86.8l12.1-26.1c0.1-0.2,0.3-0.4,0.7-0.4h0.4c0.4,0,0.5,0.2,0.7,0.4l12,26.1c0.2,0.5-0.1,1-0.7,1h-3.4
		c-0.6,0-0.9-0.2-1.1-0.8l-1.9-4.2H93.3l-1.9,4.2c-0.2,0.4-0.5,0.8-1.1,0.8h-3.4C86.3,87.8,86,87.3,86.2,86.8z M103,78.6L99.1,70H99
		l-3.8,8.5H103z"/>
	<path class="st0" d="M115.4,61c0-0.4,0.3-0.7,0.7-0.7h1l16.1,17.2h0v-16c0-0.4,0.3-0.7,0.7-0.7h3.6c0.4,0,0.7,0.3,0.7,0.7v26.1
		c0,0.4-0.3,0.7-0.7,0.7h-0.9l-16.2-17.8h0v16.7c0,0.4-0.3,0.7-0.7,0.7h-3.5c-0.4,0-0.7-0.3-0.7-0.7V61z"/>
	<path class="st0" d="M141.9,86.8L154,60.7c0.1-0.2,0.3-0.4,0.7-0.4h0.4c0.4,0,0.5,0.2,0.7,0.4l12,26.1c0.2,0.5-0.1,1-0.7,1h-3.4
		c-0.6,0-0.9-0.2-1.1-0.8l-1.9-4.2H149l-1.9,4.2c-0.2,0.4-0.5,0.8-1.1,0.8h-3.4C142,87.8,141.7,87.3,141.9,86.8z M158.7,78.6
		l-3.9-8.5h-0.1l-3.8,8.5H158.7z"/>
	<path class="st0" d="M179.7,61.4c0-0.4,0.3-0.7,0.7-0.7h15.8c0.4,0,0.7,0.3,0.7,0.7v3.2c0,0.4-0.3,0.7-0.7,0.7h-11.5v7.3h9.6
		c0.4,0,0.7,0.3,0.7,0.7v3.2c0,0.4-0.3,0.7-0.7,0.7h-9.6v9.8c0,0.4-0.3,0.7-0.7,0.7h-3.6c-0.4,0-0.7-0.3-0.7-0.7V61.4z"/>
	<path class="st0" d="M201.6,61.6c0-0.5,0.4-0.9,0.9-0.9h3.4c0.5,0,0.9,0.4,0.9,0.9v10.5l9.8-11c0.2-0.2,0.4-0.4,0.7-0.4h3.9
		c0.7,0,1.1,0.8,0.6,1.4l-10.1,11.4l10.9,13c0.4,0.5,0.1,1.4-0.7,1.4h-4.2c-0.4,0-0.6-0.2-0.7-0.3l-10.1-12.5v11.8
		c0,0.5-0.4,0.9-0.9,0.9h-3.4c-0.5,0-0.9-0.4-0.9-0.9V61.6z"/>
</g>
</svg>
